# xmcd CD database file
#
# Track frame offsets:
#	150
#	19261
#	51373
#
# Disc length: 979 seconds
#
# Revision: 2
# Processed by: cddbd v1.5.2PL0 Copyright (c) Steve Scherf et al.
# Submitted via: CDex 1.79
#
DISCID=2103d103
DTITLE=Myslovitz - Sound Of Solitude
DYEAR=2003
DGENRE=Alt Rock
TTITLE0=Sound Of Solitude
TTITLE1=Sound Of Solitude (smolik mix)
TTITLE2=DATA
EXTD=YEAR: 2003
EXTT0=
EXTT1=
EXTT2=
PLAYORDER=
